<svg xmlns="http://www.w3.org/2000/svg" width="71.143" height="71.191" viewBox="0 0 71.143 71.191">
  <path id="Tracé_32" data-name="Tracé 32" d="M22.217.391h46.24c8.35,0,12.451-4.1,12.451-12.3V-58.5c0-8.2-4.1-12.3-12.451-12.3H22.217Q9.766-70.8,9.766-58.5v46.582Q9.766.391,22.217.391ZM38.428-15.283a3.419,3.419,0,0,1-.049-4.883L54.541-35.205,38.379-50.2a3.379,3.379,0,0,1,.1-4.883,3.44,3.44,0,0,1,4.785.146L59.619-39.7a6.308,6.308,0,0,1,0,9.033L43.262-15.43A3.769,3.769,0,0,1,38.428-15.283Z" transform="translate(-9.766 70.801)"/>
</svg>
