<svg xmlns="http://www.w3.org/2000/svg" viewBox="0 0 99.61 99.609">
    <defs>
      <linearGradient id="MyGradient" x1="0%" y1="0%" x2="0%" y2="100%">
        <stop offset="0" stop-color="#a6abb7" />
        <stop offset="100" stop-color="#858992" />
      </linearGradient>
    </defs>
  <path fill="url(#MyGradient)" d="M58.545,14.551a50.142,50.142,0,0,0,49.805-49.8c0-27.2-22.608-49.8-49.854-49.8-27.2,0-49.756,22.607-49.756,49.8C8.74-8.008,31.348,14.551,58.545,14.551Zm0-77.93c9.375,0,16.748,8.2,16.748,18.066,0,10.5-7.373,18.506-16.748,18.408S41.8-34.814,41.8-45.312C41.748-55.176,49.17-63.379,58.545-63.379ZM88.232-6.348l.146.635a41.2,41.2,0,0,1-29.834,12.6,41.2,41.2,0,0,1-29.834-12.6l.147-.635c4.2-5.859,14.7-12.256,29.687-12.256C73.584-18.6,84.033-12.207,88.232-6.348Z" transform="translate(-8.74 85.059)"/>
</svg>
