<svg xmlns="http://www.w3.org/2000/svg" width="73.926" height="86.084" viewBox="0 0 73.926 86.084">
  <path id="Tracé_32" data-name="Tracé 32" d="M43.8-7.031c1.758,0,4.053-7.031,4.053-19.971V-48.34a15.365,15.365,0,0,0,11.23-14.795A15.285,15.285,0,0,0,43.8-78.467,15.285,15.285,0,0,0,28.516-63.135,15.263,15.263,0,0,0,39.7-48.389V-27C39.7-14.111,41.992-7.031,43.8-7.031ZM39.5-62.207a5.371,5.371,0,0,1-5.225-5.273A5.328,5.328,0,0,1,39.5-72.705a5.262,5.262,0,0,1,5.225,5.225A5.3,5.3,0,0,1,39.5-62.207ZM43.8,7.617c23.877,0,36.963-8.447,36.963-16.895,0-10.693-16.455-17.139-26.807-17.285v6.4c6.787.1,17.822,4.1,17.822,9.766C71.777-3.955,60.01.635,43.8.635,27.49.635,15.82-3.906,15.82-10.4c0-5.664,11.035-9.668,17.822-9.766v-6.4C23.291-26.416,6.836-19.971,6.836-9.277,6.836-.83,19.922,7.617,43.8,7.617Z" transform="translate(-6.836 78.467)"/>
</svg>
