<svg xmlns="http://www.w3.org/2000/svg" width="78.857" height="78.809" viewBox="0 0 78.857 78.809">
  <path id="Tracé_32" data-name="Tracé 32" d="M46.24,4.15a39.744,39.744,0,0,0,39.453-39.4c0-21.533-17.969-39.4-39.5-39.4a39.691,39.691,0,0,0-39.355,39.4A39.734,39.734,0,0,0,46.24,4.15Zm0-61.035a3.918,3.918,0,0,1,2.881,1.367l13.721,13.77a3.558,3.558,0,0,1,.977,2.441,3.4,3.4,0,0,1-3.467,3.516,3.535,3.535,0,0,1-2.539-1.025l-4.346-4.492-4-4.98.391,9.57V-17.09a3.437,3.437,0,0,1-3.613,3.516,3.425,3.425,0,0,1-3.564-3.516V-36.719l.391-9.521-4,4.932-4.395,4.492a3.446,3.446,0,0,1-2.49,1.025,3.4,3.4,0,0,1-3.467-3.516,3.35,3.35,0,0,1,.977-2.441l13.77-13.77A3.709,3.709,0,0,1,46.24-56.885Z" transform="translate(-6.836 74.658)"/>
</svg>
