<svg xmlns="http://www.w3.org/2000/svg" viewBox="0 0 72.266 83.447">
  <path id="Tracé_36" data-name="Tracé 36" d="M67.139-3.955,70.166-62.5h6.4a1.543,1.543,0,0,0,1.563-1.562,1.543,1.543,0,0,0-1.562-1.562h-18.7v-6.3c0-4.59-3.418-7.91-8.545-7.91h-14.7c-5.127,0-8.5,3.32-8.5,7.91v6.3H7.422a1.607,1.607,0,0,0-1.562,1.563A1.573,1.573,0,0,0,7.422-62.5h6.445L16.895-3.955a7.787,7.787,0,0,0,7.959,7.568H59.18A7.818,7.818,0,0,0,67.139-3.955ZM29.395-71.777c0-2.881,2.148-4.98,5.371-4.98h14.4c3.223,0,5.42,2.1,5.42,4.98v6.152h-25.2ZM25.049.488a5.013,5.013,0,0,1-4.932-4.736L17.139-62.5H66.846L63.916-4.248A4.944,4.944,0,0,1,58.984.488Zm28.467-8.3A1.335,1.335,0,0,0,54.883-9.18L56.25-52.637A1.389,1.389,0,0,0,54.883-54.1a1.432,1.432,0,0,0-1.367,1.367L52.2-9.326A1.368,1.368,0,0,0,53.516-7.812Zm-23.047,0a1.4,1.4,0,0,0,1.367-1.514L30.469-52.734A1.4,1.4,0,0,0,29.1-54.1a1.325,1.325,0,0,0-1.318,1.465L29.15-9.18A1.324,1.324,0,0,0,30.469-7.812Zm11.572,0a1.408,1.408,0,0,0,1.367-1.416V-52.686A1.408,1.408,0,0,0,42.041-54.1a1.449,1.449,0,0,0-1.416,1.416V-9.229A1.449,1.449,0,0,0,42.041-7.812Z" transform="translate(-5.859 79.834)"/>
</svg>
