<svg version="1.1" xmlns="http://www.w3.org/2000/svg" xmlns:xlink="http://www.w3.org/1999/xlink"  viewBox="0 0 1000 1000" xml:space="preserve">
<g><path d="M500,637.9c101.5,0,184.5-88.1,184.5-195.9V205.9C684.5,98.2,601.5,10,500,10c-101.4,0-184.5,88.2-184.5,195.9V442C315.5,549.8,398.5,637.9,500,637.9z M779.9,262.7v230.2c0,148.6-120.8,269.4-269.4,269.4h-21c-148.5,0-269.4-120.8-269.4-269.4V262.7h-49v230.2c0,165,126.1,301.1,287,316.8v120.9H340.9V990h318.4v-59.4H541.8V809.7c160.9-15.7,287-151.8,287-316.8V262.7H779.9L779.9,262.7z"/></g>
</svg>