<?xml version="1.0" encoding="utf-8"?>
<!-- Svg Vector Icons : http://www.onlinewebfonts.com/icon -->
<!DOCTYPE svg PUBLIC "-//W3C//DTD SVG 1.1//EN" "http://www.w3.org/Graphics/SVG/1.1/DTD/svg11.dtd">
<svg version="1.1" xmlns="http://www.w3.org/2000/svg" xmlns:xlink="http://www.w3.org/1999/xlink" x="0px" y="0px" viewBox="0 0 1000 1000" enable-background="new 0 0 1000 1000" xml:space="preserve">
<metadata> Svg Vector Icons : http://www.onlinewebfonts.com/icon </metadata>
<g><g transform="translate(0.000000,511.000000) scale(0.100000,-0.100000)"><path d="M4645.5,5001.9C2332.2,4829.3,461.3,3076.6,137.3,777.5c-49.7-366.6-49.7-972.1,0-1343.5C442.4-2739.7,2143-4445.1,4316.7-4754.9c364.2-52,1017.1-52,1369.5,0C6790.8-4594.1,7798.4-4073.7,8553-3279c711.9,752.2,1156.6,1669.9,1308,2698.8c52,352.4,52,1005.3,0,1369.5c-205.8,1440.5-1043.1,2724.8-2284.9,3495.9C6731.7,4810.3,5650.8,5075.2,4645.5,5001.9z M3893.3,2322.1c241.3-146.7,350.1-482.5,350.1-1080.9c0-458.9-75.7-799.5-217.6-972.1c-139.5-170.3-404.5-217.6-577.1-101.7c-113.5,78.1-139.6,108.8-212.9,262.5c-87.5,182.1-127.7,439.9-127.7,813.7c0,752.2,191.6,1133,567.7,1133C3768,2376.4,3829.5,2362.3,3893.3,2322.1z M6542.5,2322.1c241.3-146.7,350-484.9,350-1080.9c0-754.5-189.2-1135.3-567.7-1135.3s-567.7,378.4-567.7,1135.3c0,754.5,191.6,1135.3,565.3,1135.3C6417.1,2376.4,6478.6,2362.3,6542.5,2322.1z M2507.3-1419.9c246-177.4,439.9-283.8,740.3-404.5c1367.1-555.8,3143.5-390.3,4233.9,395c108.8,78,201,137.2,205.8,132.4c14.2-14.2-264.9-428.1-392.6-581.8c-227.1-269.7-605.5-563-941.4-733.2c-208.2-106.4-591.3-229.4-842.1-274.4c-269.6-44.9-752.2-44.9-1021.8,0c-894.1,156.1-1639.1,681.2-2135.8,1509.1c-28.4,47.3-47.3,87.5-40.2,87.5C2318.1-1289.8,2407.9-1348.9,2507.3-1419.9z"/></g></g>
</svg>