<svg xmlns="http://www.w3.org/2000/svg" viewBox="0 0 77.393 77.393">
  <path id="Tracé_33" data-name="Tracé 33" d="M45.508,3.467A38.961,38.961,0,0,0,84.229-35.205,38.929,38.929,0,0,0,45.557-73.926c-1.953,0-2.832,1.123-2.832,2.978v14.893a2.518,2.518,0,0,0,2.49,2.686,2.518,2.518,0,0,0,2.49-2.686v-12.06a32.818,32.818,0,0,1,30.762,32.91A32.853,32.853,0,0,1,45.508-2.246,32.853,32.853,0,0,1,12.549-35.205,32.967,32.967,0,0,1,20.7-56.885a2.95,2.95,0,0,0,0-4.053,2.751,2.751,0,0,0-4.2.391A38.273,38.273,0,0,0,6.836-35.205,38.951,38.951,0,0,0,45.508,3.467Zm5.859-33.2c2.881-3.027,2.246-7.08-1.172-9.522L30.127-53.369a1.658,1.658,0,0,0-2.344,2.344L41.895-30.957C44.336-27.539,48.389-26.855,51.367-29.736Z" transform="translate(-6.836 73.926)"/>
</svg>
