<svg xmlns="http://www.w3.org/2000/svg" viewBox="0 0 75.391 75.342">
  <path id="Tracé_33" data-name="Tracé 33" d="M44.531,2.441a37.9,37.9,0,0,0,37.7-37.647,37.94,37.94,0,0,0-37.7-37.7,37.94,37.94,0,0,0-37.7,37.7A37.929,37.929,0,0,0,44.531,2.441ZM33.2-55.127c2.344-6.055,5.713-10.4,9.326-11.572V-54.15A59.44,59.44,0,0,1,33.2-55.127ZM46.484-66.7c3.662,1.172,6.982,5.518,9.326,11.572a59.437,59.437,0,0,1-9.326.977ZM22.852-58.74a31.454,31.454,0,0,1,12.061-6.983A31.311,31.311,0,0,0,29.248-56.1,28.265,28.265,0,0,1,22.852-58.74Zm31.3-6.983A30.909,30.909,0,0,1,66.162-58.74,30.239,30.239,0,0,1,59.814-56.1,31.311,31.311,0,0,0,54.15-65.723Zm9.18,28.467a59.736,59.736,0,0,0-2.295-15.185,31.9,31.9,0,0,0,7.91-3.418,31.774,31.774,0,0,1,7.471,18.6Zm-50.684,0a31.774,31.774,0,0,1,7.471-18.6,32.335,32.335,0,0,0,7.861,3.418,61.984,61.984,0,0,0-2.295,15.185Zm17.139,0a55.5,55.5,0,0,1,2.2-14.16A59.483,59.483,0,0,0,42.529-50.2v12.939Zm16.7,0V-50.2a59.51,59.51,0,0,0,10.6-1.221,60.153,60.153,0,0,1,2.2,14.16Zm-33.838,4H25.684a61.321,61.321,0,0,0,2.295,15.381A33.906,33.906,0,0,0,20.166-14.5,31.809,31.809,0,0,1,12.646-33.252Zm17.139,0H42.529v13.135A59.484,59.484,0,0,0,31.982-18.9,57.058,57.058,0,0,1,29.785-33.252Zm16.7,13.135V-33.252H59.277A57.058,57.058,0,0,1,57.08-18.9,59.511,59.511,0,0,0,46.484-20.117Zm14.551,2.246A61.321,61.321,0,0,0,63.33-33.252H76.416a31.643,31.643,0,0,1-7.52,18.8A31.523,31.523,0,0,0,61.035-17.871ZM46.484-16.162a59.437,59.437,0,0,1,9.326.977c-2.344,6.055-5.664,10.4-9.326,11.572ZM33.2-15.186a59.439,59.439,0,0,1,9.326-.977V-3.613C38.916-4.785,35.547-9.131,33.2-15.186Zm26.611.977a28.392,28.392,0,0,1,6.3,2.637A31.824,31.824,0,0,1,54.3-4.736,32.515,32.515,0,0,0,59.814-14.209ZM22.949-11.621a30.866,30.866,0,0,1,6.3-2.588,31.53,31.53,0,0,0,5.469,9.424A32.016,32.016,0,0,1,22.949-11.621Z" transform="translate(-6.836 72.9)"/>
</svg>
