<svg xmlns="http://www.w3.org/2000/svg" width="91.162" height="74.561" viewBox="0 0 91.162 74.561">
  <path id="Tracé_31" data-name="Tracé 31" d="M22.705.83H87.988c8.545,0,12.94-4.346,12.94-12.793V-52.051c0-8.447-4.395-12.793-12.94-12.793H80.029c-2.93,0-3.955-.635-5.762-2.49l-2.979-3.174c-1.953-2.051-4.053-3.223-8.008-3.223H47.363c-3.955,0-6.055,1.172-8.008,3.223l-2.979,3.174c-1.758,1.855-2.783,2.49-5.762,2.49h-7.91c-8.5,0-12.939,4.346-12.939,12.793v40.088C9.766-3.516,14.209.83,22.705.83ZM55.322-12.3a20.839,20.839,0,0,1-20.9-20.947A20.839,20.839,0,0,1,55.322-54.2,20.85,20.85,0,0,1,76.27-33.252,20.85,20.85,0,0,1,55.322-12.3ZM83.35-41.943a5.22,5.22,0,0,1-5.225-5.176,5.2,5.2,0,0,1,5.225-5.225,5.2,5.2,0,0,1,5.225,5.225A5.22,5.22,0,0,1,83.35-41.943ZM55.322-20.068A13.17,13.17,0,0,0,68.555-33.252,13.212,13.212,0,0,0,55.322-46.484,13.2,13.2,0,0,0,42.139-33.252,13.191,13.191,0,0,0,55.322-20.068Z" transform="translate(-9.766 73.73)"/>
</svg>
