<svg xmlns="http://www.w3.org/2000/svg" viewBox="0 0 410 410" width="410" height="410" style="background: transparent;">
  <path class="cls-3" d="M 269.186 221.952 L 48.756 1.552 L 245.006 1.552 C 330.869 1.647 384.431 94.656 341.417 168.968 C 325.801 195.947 299.609 215.16 269.186 221.952 Z" style="fill: rgb(105, 105, 255);"/>
  <polygon class="cls-3" points="371.336 373.582 238.436 373.582 111.886 247.022 111.886 364.872 1.066 364.872 1.066 110.462 26.866 135.542 111.716 225.582 137.086 225.582 105.886 193.382 43.616 131.102 26.566 114.052 0.066 87.552 0.066 60.942 51.046 111.732 63.086 123.772 109.676 170.362 169.886 224.582 202.446 225.582 90.916 114.052 1.066 24.192 1.066 2.522 6.066 2.522 228.246 224.582 223.646 225.582 371.336 373.582" style="fill: rgb(105, 105, 255);"/>
  <path class="cls-2" d="M 294.966 221.952 L 74.556 1.552 L 270.806 1.552 C 356.669 1.558 410.327 94.513 367.389 168.869 C 351.757 195.94 325.483 215.208 294.966 221.982 L 294.966 221.952 Z" style="fill: rgb(255, 255, 255);"/>
  <polygon class="cls-2" points="397.136 372.582 264.236 372.582 137.686 246.022 137.686 363.872 26.866 363.872 26.866 135.542 121.046 223.872 130.516 224.582 163.886 224.582 131.686 192.382 69.416 130.102 52.366 113.052 0.066 60.942 20.866 59.942 73.856 113.052 86.266 125.492 133.456 169.702 191.156 224.582 228.246 224.582 116.716 113.052 6.066 2.522 26.866 1.522 26.936 1.522 249.526 224.582 249.446 224.582 397.136 372.582" style="fill: rgb(255, 255, 255);"/>
  <polygon class="cls-3" points="268.166 221.952 293.966 221.952 286.456 214.432 268.166 221.952" style="fill: rgb(105, 105, 255);"/>
</svg>